<?xml version="1.0" encoding="UTF-8"?>
<svg id="Warstwa_2" data-name="Warstwa 2" xmlns="http://www.w3.org/2000/svg" viewBox="0 0 499.8 301.16">
  <defs>
    <style>
      .cls-1 {
        fill: #fdfefe;
      }

      .cls-2 {
        fill: #01a1ad;
      }

      .cls-3 {
        fill: #bcd753;
      }

      .cls-4 {
        fill: #deebac;
      }

      .cls-5 {
        fill: #00a0ac;
      }

      .cls-6 {
        fill: #05a2ae;
      }

      .cls-7 {
        fill: #00a0aa;
      }

      .cls-8 {
        fill: #03a1ad;
      }

      .cls-9 {
        fill: #00a1ac;
      }

      .cls-10 {
        fill: #57c0c8;
      }

      .cls-11 {
        fill: #d2e48b;
      }

      .cls-12 {
        fill: #b0d033;
      }

      .cls-13 {
        fill: #bbd752;
      }

      .cls-14 {
        fill: #78cdd2;
      }

      .cls-15 {
        fill: #fefefe;
      }

      .cls-16 {
        fill: #afd033;
      }
    </style>
  </defs>
  <g id="Warstwa_1-2" data-name="Warstwa 1">
    <g>
      <path class="cls-7" d="M230.91,0c5.29,6.58,11.65,12.18,16.72,18.97,15.46,20.69,20.01,43.72,15.63,68.92-3.35,19.3-10.49,37.22-19.16,54.67,1.04-9.67,2.76-19.21,2.23-28.99-.73-13.32-4.14-25.86-9.94-37.83-4.64-9.57-9.5-19.07-11.52-29.64-2.87-15.01,.11-29.43,4.54-43.7,.24-.78,.34-1.6,.51-2.4,.33,0,.67,0,1,0Z"/>
      <path class="cls-5" d="M43.18,257.66c13.52,1.9,19.8,14.25,13.28,26.9-4.46,8.64-11.64,14.23-21.67,14.65-9.97,.42-19.98,.14-29.97,.14-1.1,0-2.64,.36-2.98-1.09-.45-1.92,1.29-2.08,2.55-2.23,4.08-.49,4.35-3.27,4.34-6.54-.06-17.65-.03-35.29-.03-52.94,0-8.25-.1-8.35-8.71-8.7v-3c12.16,.01,24.32,.02,36.48,.03,10.19,.01,16.8,4.03,18.4,11.17,1.68,7.51-3.12,15.55-11.84,19.82-1.1,.69-2.04,1.36,.14,1.78Z"/>
      <path class="cls-2" d="M499.8,299.81c-3.44-.93-6.97-.59-10.41-.34-4.27,.31-6.34-.84-5.5-5.42,.14-.79-.05-1.64-.12-3.08-2.38,1.83-4.4,3.43-6.47,4.96-2.85,2.11-5.92,3.68-9.56,3.86-6.62,.33-12.15-2.55-14.06-7.35-2.25-5.62-.11-12.95,5.11-16.96,5.78-4.44,12.82-5.18,19.65-6.55,1.9-.38,4.88,.92,5.35-2.2,.45-3.08,.52-6.19-2.34-8.69-7.36-6.44-15.47-5.33-20.65,3.13-.7,1.15-1.29,1.9-2.67,1.51-1.28-.37-1.21-1.46-1.11-2.43,.17-1.61-.29-3.52,1.32-4.61,9.04-6.1,18.53-10.12,29.04-2.99,3.59,2.43,5.44,5.52,5.36,10-.17,8.81-.07,17.63-.04,26.45,.02,6.11,.78,6.92,7.1,7.72v3Z"/>
      <path class="cls-7" d="M109.91,122.99c7.27,13.54,16.55,23.35,28.41,30.63,17.09,10.49,35.92,14.53,55.75,14.46,26.55-.09,51.39-8.12,76.1-16.67,15.56-5.38,31.11-10.87,47.72-12.01,20.84-1.42,40.58,1.41,56.9,16.02,4.19,3.75,7.67,8.14,9.05,14.06-6.56-5.1-13.53-9.25-21.47-11.51-17.73-5.05-35.52-3.95-53.38-.64-17.09,3.17-33.26,9.25-49.52,15.07-15.66,5.61-31.41,10.98-48.05,12.84-34.11,3.81-64.1-4.44-87.37-31.01-7.41-8.47-12.31-18.42-14.13-31.26Z"/>
      <path class="cls-16" d="M240.07,137.74c-4.67-19.8-16.14-35.03-31.77-47.52-8.95-7.16-18.25-13.92-26.04-22.43-9.2-10.05-14.56-21.93-16.94-35.37,39.64,9.65,73.09,45.3,75.71,96.42-.04,3,1.85,6.21-.96,8.91Z"/>
      <path class="cls-7" d="M248.81,143.8c16.03-20.92,23.61-44.68,27.08-70.03,2.54-18.58,11.35-33.77,25.66-46.27,2.26,4.98,2.99,10.15,3.38,15.37,1.97,26.41-7.38,49.21-22.65,70.03-8.22,11.21-18.03,20.88-29.16,29.21-1.02,.76-1.85,1.98-4.31,1.68Z"/>
      <path class="cls-9" d="M174.17,257.52c3.23-2.34,5.64-4.39,8.33-5.97,7.86-4.62,15.18-3.54,20.92,3.49,2.33,2.86,3.43,2.56,5.96,.31,9.46-8.43,16.99-8.65,25.16-1.29,2.9,2.61,4.37,5.66,4.3,9.65-.15,8.49,.17,17-.13,25.48-.16,4.58,1.64,6.85,5.99,7.51,1.01,.15,2.76-.35,2.54,1.46-.18,1.5-1.75,1.16-2.88,1.22-.17,0-.33,0-.5,0q-13.91,.59-13.91-13.37c0-6.16,.17-12.33-.08-18.48-.37-8.79-8.03-14.32-15.84-11.5-4.39,1.59-7.26,4.55-7.21,9.66,.07,8.16,.19,16.33-.06,24.48-.12,3.92,1.26,5.95,5.12,6.45,1.02,.13,2.71-.23,2.49,1.58-.14,1.17-1.43,1.17-2.44,1.17-6.83,0-13.66,.01-20.49,0-.95,0-2.26,.19-2.38-1.15-.16-1.88,1.48-1.39,2.5-1.48,4.69-.4,6.62-2.72,6.41-7.56-.33-7.31,.18-14.67-.21-21.98-.53-10.05-9.84-15.03-18.22-10.04-3.22,1.92-5.26,4.66-5.29,8.49-.08,8.33-.01,16.65-.06,24.98-.02,4.49,3.24,5.3,6.59,6.04,.92,.2,2.2-.03,2.07,1.46-.12,1.43-1.36,1.23-2.3,1.23-7.16,.02-14.33,.02-21.49,0-.98,0-2.1-.01-2.11-1.45,0-1.1,.93-1.34,1.71-1.42,5.99-.62,6.68-4.46,6.49-9.54-.32-8.48-.2-16.99-.04-25.48,.07-3.78-1.24-5.65-5.17-5.48-1.14,.05-3.04,.68-2.98-1.48,.05-1.88,1.84-1.47,3.07-1.76,3.24-.74,6.61-1.16,9.68-2.37,4.03-1.59,5.04-.27,4.51,3.55-.13,.96-.02,1.95-.02,3.59Z"/>
      <path class="cls-2" d="M349.14,290.31c-3.43,3.17-6.17,5.55-9.38,7.2-13.45,6.93-27.28-.38-29.74-15.71-3.73-23.24,15.14-38.7,37.24-30.53,.44,.16,.94,.2,1.85,.39,0-6.63,.09-13.09-.04-19.54-.08-3.82-3.4-3.43-5.86-4.03-1.06-.26-2.54,.11-2.49-1.65,.04-1.66,1.44-1.49,2.55-1.71,3.42-.67,6.95-1.04,10.23-2.14,4.03-1.35,5.1-.36,5.05,3.87-.21,16.64-.09,33.27-.09,49.91,0,3.66,.11,7.32-.03,10.98-.18,4.78,.4,8.83,6.59,8.79,1.11,0,1.96,.47,1.88,1.76-.08,1.37-1.15,1.45-2.15,1.45-4.33,.02-8.65-.02-12.98,.02-1.9,.02-2.72-.82-2.65-2.71,.07-1.76,.02-3.52,.02-6.35Z"/>
      <path class="cls-16" d="M232.81,136.98c-14.06-14.13-32.3-19.06-50.95-23.06-12.62-2.71-24.69-6.61-34.88-15-3.35-2.76-6.24-5.92-9.27-9.1,28.11-7.13,72.64,5.41,96.4,45.79,.26,1.13-.21,1.56-1.31,1.37Z"/>
      <path class="cls-7" d="M258.03,144.04c16.47-8.03,29.91-19.65,40.97-34.19,9.84-12.95,21.4-23.7,37.71-27.96,1.22-.32,2.58-1.64,3.69-.54,1.29,1.27,.07,2.82-.4,4.16-7.05,19.84-21.53,33.26-38.77,44.04-12.65,7.9-26.49,13.02-41.26,15.48-1.02,.41-2.03,.79-1.94-.99Z"/>
      <path class="cls-16" d="M135.8,132.27c34.34-5.67,67.92-5.11,99.51,11.76-34.38,6.29-67.76,4.18-99.51-11.76Z"/>
      <path class="cls-12" d="M371.65,171.01c-9-1.47-17.96-2.68-27.17-2.54-19.85,.32-38.67,5.49-57.5,10.96-10.99,3.19-21.97,6.45-33.08,9.2-16.35,4.05-32.92,6.4-49.83,4.16-.16-2.04,1.43-1.27,2.33-1.36,3.19-.29,6.44,.43,9.61-.42,16.89-1.3,32.9-6.4,48.86-11.57,19.12-6.19,37.89-13.58,57.8-17.02,17.84-3.09,35.13-1.98,51.13,7.56,.04,1.92-1.12,1.36-2.16,1.04Z"/>
      <path class="cls-9" d="M123.53,300.81c-15.1,0-25.4-10.53-25.38-25.9,.02-16.44,9.78-26.29,25.95-26.21,15.5,.08,25.17,10.02,25.23,25.9,.06,15.3-10.69,26.21-25.79,26.2Z"/>
      <path class="cls-9" d="M298.28,291.02c-1.4,5.1-4.67,7.28-8.53,8.56-11.06,3.65-25.71-1.28-31.55-10.45-6.2-9.73-4.66-24.52,3.49-33.4,6.42-7,14.51-8.62,23.29-6.41,8.78,2.21,13.23,8.92,15.84,17.12,.71,2.23-.1,3.26-2.23,4.01-5.65,1.99-11.17,4.1-17.4,3.55-4.3-.38-8.66,.11-12.98-.13-3.16-.18-3.56,1.23-3.25,3.86,1.47,12.72,10.79,19.41,23.26,16.45,3.16-.75,6.22-1.94,10.06-3.17Z"/>
      <path class="cls-2" d="M433.3,248.76c.67,0,1.33-.03,2,0,10.29,.46,13.32,5.19,9.6,14.89-.35,.92-.73,1.39-1.71,1.34-1.06-.05-1.2-.79-1.49-1.62-2.7-7.76-5.99-10.5-12.22-10.33-6.69,.18-11.96,4.31-13.99,11.52-2.23,7.91-1.33,15.5,3.48,22.38,5.15,7.37,12.99,9.67,22.6,6.77,1.31-.39,3.16-2.11,3.96-.36,1,2.18-1.19,3.53-2.89,4.59-12.86,8.03-32.76,.22-36.76-14.41-5.11-18.66,7.66-34.89,27.41-34.77Z"/>
      <path class="cls-2" d="M83.98,272.29c0,5.98,.19,11.97-.06,17.94-.18,4.22,.82,6.86,5.64,6.56,.74-.05,1.85-.13,1.92,1,.09,1.34-1.02,1.55-2.04,1.55-6.98,.02-13.96,.01-20.94,.01-.9,0-1.83-.29-1.93-1.19-.16-1.48,1.15-1.4,2.08-1.37,5.08,.21,5.84-2.71,5.73-7-.24-8.97-.19-17.94-.02-26.91,.08-4.21-1.33-6.7-5.8-6.9-1.03-.05-2.63,.46-2.48-1.44,.09-1.21,1.29-1.38,2.27-1.52,4.28-.62,8.45-1.74,12.51-3.2,2.6-.94,3.19,.15,3.16,2.54-.08,6.64-.03,13.29-.03,19.94Z"/>
      <path class="cls-2" d="M391.15,272.22c0,5.98,.15,11.97-.05,17.95-.13,4.12,.75,6.94,5.65,6.62,.96-.06,2.17-.04,1.99,1.44-.13,1.02-1.08,1.12-1.92,1.12-6.98,0-13.97,0-20.95,0-.84,0-1.81-.09-1.97-1.09-.23-1.48,.98-1.49,1.95-1.47,4.84,.11,6.12-2.38,5.96-6.93-.3-8.63-.23-17.29-.03-25.93,.1-4.68-1.04-7.89-6.4-7.98-.95-.02-2.23,.16-2.15-1.31,.07-1.18,1.2-1.48,2.2-1.62,4.29-.62,8.46-1.71,12.52-3.18,2.46-.89,3.26-.1,3.23,2.41-.09,6.65-.03,13.3-.03,19.95Z"/>
      <path class="cls-6" d="M385.57,237.4c-3.66-.41-5.79-2.47-5.63-6.16,.15-3.47,2.37-5.34,5.84-5.39,3.67-.05,5.56,2.32,5.69,5.56,.16,3.69-2.25,5.62-5.9,5.99Z"/>
      <path class="cls-8" d="M78.49,237.41c-3.83-.46-5.81-2.43-5.71-5.98,.11-3.86,2.46-5.78,6.19-5.54,3.59,.24,5.23,2.61,5.14,6.09-.09,3.79-2.67,5-5.62,5.42Z"/>
      <path class="cls-4" d="M216.02,191c-3.75,2.17-8.2-.4-11.95,1.78-1.9,.39-3.49-.38-5.87-1.78h17.82Z"/>
      <path class="cls-11" d="M240.07,137.74c1.87-2.8,.18-5.99,.95-8.91,1.79,4.24,.43,8.65,1.1,14.21-1.57-2.32-2.21-3.64-2.05-5.3Z"/>
      <path class="cls-13" d="M232.81,136.98c.44-.45,.88-.91,1.31-1.37,1.43,1.2,2,2.86,3.19,5.31-2.53-1.19-3.62-2.45-4.51-3.95Z"/>
      <path class="cls-14" d="M258.03,144.04c.65,.33,1.29,.66,1.94,.99-1.21,1.05-2.6,1.12-4.27,.75,.33-1.29,1.34-1.5,2.33-1.74Z"/>
      <path class="cls-10" d="M43.18,257.66h-3.45c.8-1.43,1.94-1.82,3.31-1.78,.05,.59,.1,1.19,.14,1.78Z"/>
      <path class="cls-3" d="M371.65,171.01c.8-.18,1.69-.18,2.16-1.04,.78,.21,2,.81,1.53,1.36-1.11,1.33-2.51,.56-3.7-.32Z"/>
      <path class="cls-1" d="M19.33,277.51c0-4.49,.14-8.98-.05-13.45-.12-2.9,1.03-3.82,3.78-3.65,2.81,.17,5.65,.03,8.47,.04,9.15,0,12.64,2.1,15.19,9.08,2.93,8.03,1.07,16.53-4.72,21.47-6.17,5.25-13.33,5.2-20.76,3.87-2.23-.4-1.87-1.99-1.89-3.41-.05-4.65-.02-9.3-.02-13.95Z"/>
      <path class="cls-1" d="M19.33,241.62c.35-3.51-1.85-9.07,.78-11.74,2.84-2.87,8.48-.86,12.88-.92,7.45-.1,12.36,4.68,12.55,11.77,.2,7.5-5.57,14.71-12.18,15.24q-14.03,1.11-14.03-14.35Z"/>
      <path class="cls-15" d="M483.92,279.69c0,7.51-3.21,12.08-10,13.88-3.96,1.05-7.6,.54-10.19-3.15-2.59-3.7-1.95-7.42,.6-10.6,4.51-5.63,11.03-6.99,17.84-7.4,1.8-.11,1.73,1.1,1.74,2.29,.01,1.66,0,3.33,0,4.99Z"/>
      <path class="cls-15" d="M349.1,270.9c0,3.4,.03,5.89,0,8.39-.08,6.12-2.98,10.66-8.51,12.94-5.64,2.32-11.17,1.32-15.81-2.81-8.94-7.94-8.98-23.71-.16-31.73,6.54-5.95,19.02-4.86,23.6,2.37,2.23,3.53,.42,7.83,.89,10.84Z"/>
      <path class="cls-15" d="M107.89,276.83c-.12-7.35,1.57-13.36,5.42-18.65,5.67-7.81,15.45-8.11,21.01-.29,7.17,10.09,7.46,21.12,2.55,32.2-2.49,5.62-7.63,7.72-13.55,7.57-6.22-.16-10.77-3.19-13.21-8.98-1.7-4.03-2.37-8.3-2.21-11.85Z"/>
      <path class="cls-15" d="M278.01,269.84c-3.48,0-6.96-.05-10.43,.02-1.78,.04-2.6-.36-2.63-2.46-.13-9.31,6.75-15.75,15.99-14.77,5.68,.6,12.29,10.87,10.38,16.01-.59,1.58-1.82,1.16-2.88,1.18-3.48,.06-6.95,.02-10.43,.02Z"/>
    </g>
  </g>
</svg>